<svg width="27" height="27" viewBox="0 0 27 27" fill="none" xmlns="http://www.w3.org/2000/svg">
<path fill-rule="evenodd" clip-rule="evenodd" d="M0 1.5C0 0.671573 0.671573 0 1.5 0H25.5C26.3284 0 27 0.671573 27 1.5C27 2.32843 26.3284 3 25.5 3H1.5C0.671573 3 0 2.32843 0 1.5Z" fill="#1064E5"/>
<path fill-rule="evenodd" clip-rule="evenodd" d="M0 13.5C0 12.6716 0.671573 12 1.5 12H25.5C26.3284 12 27 12.6716 27 13.5C27 14.3284 26.3284 15 25.5 15H1.5C0.671573 15 0 14.3284 0 13.5Z" fill="#1064E5"/>
<path fill-rule="evenodd" clip-rule="evenodd" d="M0 25.5C0 24.6716 0.671573 24 1.5 24H25.5C26.3284 24 27 24.6716 27 25.5C27 26.3284 26.3284 27 25.5 27H1.5C0.671573 27 0 26.3284 0 25.5Z" fill="#1064E5"/>
</svg>
