<svg width="60" height="60" viewBox="0 0 60 60" fill="none" xmlns="http://www.w3.org/2000/svg">
<path d="M57.7083 31.8553L55.2506 31.068C54.9359 30.9671 54.6878 30.7159 54.5871 30.3958C54.0691 28.749 53.2875 27.2029 52.2639 25.8004C51.7973 25.1612 51.2786 24.5507 50.7118 23.9696C51.0744 22.379 51.2715 20.5789 51.246 19.0237C51.2094 16.7989 50.7648 15.494 49.8868 15.0342C49.414 14.7862 47.9749 14.0329 40.1858 17.5985C40.0014 17.6828 39.8291 17.7868 39.6696 17.9059C39.1445 17.7648 38.6078 17.6342 38.0678 17.517C38.0027 17.5029 37.9357 17.4903 37.8702 17.4765C38.5014 16.0977 38.8699 14.6001 38.9392 13.0542C38.9607 12.5723 38.5877 12.1643 38.1059 12.1428C37.6253 12.1189 37.2159 12.4941 37.1945 12.976C37.0807 15.5179 36.0263 17.9096 34.2255 19.7104C33.1497 20.7863 31.8899 21.5679 30.5473 22.06C28.2189 21.7333 25.8472 21.7333 23.5188 22.06C22.1761 21.5679 20.9164 20.7863 19.8405 19.7104C17.9194 17.7893 16.8613 15.2349 16.8613 12.5179C16.8613 9.80082 17.9194 7.2466 19.8405 5.32543C21.7617 3.40414 24.3162 2.34605 27.033 2.34605C29.7499 2.34605 32.3044 3.40414 34.2255 5.32543C34.9976 6.09746 35.6355 6.97848 36.1218 7.94375C36.3387 8.37453 36.8638 8.54797 37.2945 8.33094C37.7252 8.11414 37.8986 7.58902 37.6816 7.15836C37.1118 6.02645 36.3645 4.99438 35.4606 4.09039C33.2095 1.83934 30.2166 0.599609 27.0332 0.599609C23.8498 0.599609 20.8568 1.83934 18.6057 4.09039C16.3547 6.34156 15.115 9.33441 15.115 12.5178C15.115 15.7012 16.3547 18.6942 18.6057 20.9452C19.2551 21.5946 19.9615 22.153 20.7087 22.6208C20.7089 22.6208 20.7091 22.6207 20.7094 22.6207C20.1664 22.7618 19.6276 22.9202 19.0948 23.0983C18.6374 23.2512 18.3906 23.7459 18.5435 24.2034C18.6963 24.6608 19.1912 24.9076 19.6485 24.7548C24.4105 23.1628 29.6558 23.1628 34.4179 24.7548C34.5097 24.7855 34.603 24.8 34.6948 24.8C35.06 24.8 35.4006 24.5689 35.5228 24.2034C35.6757 23.746 35.4289 23.2512 34.9716 23.0983C34.4387 22.9202 33.8999 22.7616 33.357 22.6207C33.3572 22.6207 33.3574 22.6208 33.3577 22.6208C34.105 22.153 34.8112 21.5946 35.4606 20.9452C36.035 20.3708 36.5421 19.7435 36.9824 19.0768C37.2231 19.1236 37.462 19.1725 37.6975 19.2236C38.0111 19.2917 38.3232 19.3648 38.6326 19.4416C38.6229 19.4796 38.6129 19.5174 38.6048 19.556C38.179 21.5769 38.2066 23.3642 38.687 24.8681C39.1187 26.2198 39.8979 27.315 41.0026 28.1232C42.3047 29.0757 43.8766 29.4871 45.3006 29.4871C46.3723 29.4871 47.3603 29.2539 48.0859 28.843C48.9067 28.3781 49.5943 27.3985 50.1387 25.9278C50.3903 26.2215 50.6287 26.5223 50.8535 26.8303C51.7649 28.0788 52.4606 29.4548 52.9214 30.9199C53.192 31.7804 53.8637 32.4575 54.7181 32.7314L57.1758 33.5186C57.8207 33.7252 58.2539 34.3188 58.2539 34.9959V39.0711C58.2539 39.7482 57.8207 40.3418 57.1758 40.5484L53.2161 41.8167C52.5826 42.0198 52.0465 42.4551 51.7065 43.0427C50.1509 45.7312 47.705 47.956 44.4366 49.6554C44.059 49.8519 43.7974 50.2033 43.7187 50.6198L42.4505 57.335C42.4154 57.52 42.2534 57.6542 42.065 57.6542H37.9416C37.7532 57.6542 37.5912 57.5199 37.5561 57.335L36.8537 53.6238C36.7154 52.8936 36.0306 52.4086 35.2935 52.5202C33.5173 52.7888 31.687 52.9249 29.8539 52.9249C28.49 52.9249 27.1437 52.8488 25.8519 52.6987C25.1377 52.6166 24.4723 53.1035 24.3388 53.8087L23.6713 57.335C23.6362 57.52 23.4742 57.6542 23.2859 57.6542H19.1624C18.9741 57.6542 18.812 57.5199 18.7765 57.3322L17.5554 50.9898C17.4768 50.5811 17.2201 50.2337 16.8509 50.0364C11.2793 47.0621 8.33438 42.0929 8.33438 35.6663C8.33438 32.4193 9.04477 29.5481 10.4457 27.1321C11.7531 24.8776 13.6625 23.0135 16.121 21.5914C16.5384 21.3499 16.6811 20.8157 16.4396 20.3982C16.1982 19.9808 15.6641 19.8384 15.2466 20.0796C10.4795 22.8372 7.6043 27.0916 6.8127 32.4951V32.495C6.72867 32.4874 6.64453 32.4801 6.56074 32.4714C6.57598 31.8884 6.47051 31.3002 6.24082 30.7292C5.73422 29.4699 4.69359 28.561 3.58957 28.4137C2.71957 28.2972 1.89164 28.6666 1.31707 29.4257C0.483984 30.5266 0.619805 31.3978 0.880313 31.9347C1.32012 32.8409 2.45063 33.482 4.32668 33.885C4.27512 33.9622 4.2184 34.0398 4.15629 34.1177C3.04781 35.5079 1.74187 35.8153 0.893906 35.8442C0.3975 35.861 0 36.2595 0 36.7563V36.7605C0 37.2505 0.386602 37.6501 0.876094 37.6725C0.938789 37.6754 1.0043 37.6769 1.0725 37.6769C2.14547 37.6769 3.86754 37.2812 5.52199 35.2066C5.7832 34.8792 5.99602 34.5337 6.15961 34.1768C6.32438 34.1954 6.4827 34.2113 6.63434 34.2254C6.63434 34.225 6.63434 34.2248 6.63445 34.2245C6.60469 34.6977 6.58816 35.1778 6.58816 35.6663C6.58816 39.3024 7.455 42.5444 9.16441 45.3027C10.7406 47.8456 12.9973 49.9278 15.874 51.4937L17.0611 57.6596C17.252 58.6684 18.1357 59.4005 19.1624 59.4005H23.2859C24.3125 59.4005 25.1962 58.6684 25.3871 57.6596L25.9907 54.4712C27.2441 54.6039 28.5418 54.6712 29.8538 54.6712C31.6537 54.6712 33.4516 54.5458 35.2038 54.2983L35.84 57.6598C36.0311 58.6686 36.9148 59.4007 37.9413 59.4007H42.0648C43.0915 59.4007 43.9752 58.6685 44.1662 57.6594L45.401 51.1214C48.8895 49.2767 51.5189 46.8535 53.2179 43.9173C53.3404 43.7056 53.5289 43.5504 53.7487 43.4799L57.7083 42.2116C59.079 41.7723 60 40.5103 60 39.0709V34.9957C60 33.5564 59.079 32.2944 57.7083 31.8553ZM49.3685 21.4775C49.0324 24.3516 48.1309 26.8102 47.225 27.3233C46.1954 27.9065 43.8183 28.0191 42.0335 26.7136C40.2466 25.4064 39.6519 23.0559 40.3134 19.916C40.3134 19.9159 40.3134 19.9159 40.3134 19.9159C40.3799 19.6005 40.6039 19.3277 40.9127 19.1864C45.2843 17.1853 47.8046 16.5308 48.741 16.5308C48.8823 16.5308 48.9875 16.5457 49.0576 16.5731C49.3389 16.8729 49.7078 18.5769 49.3685 21.4775ZM2.45168 31.1722C2.36133 30.9859 2.57461 30.6583 2.70984 30.4795C2.92418 30.1964 3.12164 30.1385 3.27082 30.1385C3.30234 30.1385 3.33176 30.1411 3.35871 30.1447C3.7602 30.1982 4.3227 30.64 4.6207 31.3808C4.6909 31.5552 4.78207 31.844 4.8034 32.2043C3.59461 31.9538 2.65547 31.5928 2.45168 31.1722Z" fill="#1064E5" stroke="#1064E5"/>
</svg>
