<svg width="131" height="40" viewBox="0 0 131 40" fill="none" xmlns="http://www.w3.org/2000/svg">
<path d="M72.0167 6.56348C72.7816 6.56348 73.4092 6.79883 73.8995 7.26953C74.3899 7.72062 74.635 8.309 74.635 9.03467C74.635 9.76034 74.3899 10.3585 73.8995 10.8292C73.4092 11.2999 72.7816 11.5353 72.0167 11.5353C71.2714 11.5353 70.6438 11.2999 70.1339 10.8292C69.6436 10.3585 69.3984 9.76034 69.3984 9.03467C69.3984 8.32861 69.6436 7.74023 70.1339 7.26953C70.6438 6.79883 71.2714 6.56348 72.0167 6.56348ZM69.8986 30.2163V14.0359H74.1055V30.2163H69.8986Z" fill="#061224"/>
<path d="M88.4795 14.0366H92.6864V30.0111C92.6864 32.4039 91.9607 34.3161 90.5094 35.7478C89.0581 37.1992 87.1164 37.9248 84.6845 37.9248C82.5859 37.9248 80.7619 37.3953 79.2125 36.3362C77.6827 35.2771 76.7708 33.7375 76.4766 31.7174H80.8306C81.262 33.3649 82.5075 34.1886 84.5668 34.1886C87.1753 34.1886 88.4795 32.8353 88.4795 30.1288V27.8047C87.2243 29.4914 85.5278 30.3347 83.39 30.3347C81.2719 30.3347 79.5067 29.5502 78.0946 27.9812C76.7021 26.4122 76.0059 24.4215 76.0059 22.0092C76.0059 19.5968 76.7119 17.6061 78.124 16.0371C79.5361 14.4681 81.2915 13.6836 83.39 13.6836C85.5474 13.6836 87.2439 14.5466 88.4795 16.2725V14.0366ZM84.3314 26.3338C85.5278 26.3338 86.5182 25.9317 87.3027 25.1276C88.0873 24.3235 88.4795 23.284 88.4795 22.0092C88.4795 20.754 88.0774 19.7243 87.2733 18.9202C86.4888 18.0964 85.5082 17.6846 84.3314 17.6846C83.1547 17.6846 82.174 18.0964 81.3895 18.9202C80.6246 19.7243 80.2422 20.754 80.2422 22.0092C80.2422 23.2644 80.6246 24.3038 81.3895 25.1276C82.174 25.9317 83.1547 26.3338 84.3314 26.3338Z" fill="#061224"/>
<path d="M59.2801 22.0257C57.77 21.7119 56.554 21.3981 55.6322 21.0843C54.7104 20.7705 53.8671 20.3685 53.1022 19.8782C52.3373 19.4075 51.7979 18.8191 51.4841 18.113C51.1507 17.407 50.984 16.5538 50.984 15.5536C50.984 14.416 51.2292 13.406 51.7195 12.5234C52.1902 11.6605 52.8276 10.9936 53.6317 10.5229C54.4162 10.0522 55.2497 9.6992 56.1323 9.46385C56.9953 9.22849 57.8876 9.11082 58.8094 9.11082C61.6141 9.11082 63.7518 9.76784 65.2228 11.0819C66.6741 12.4156 67.5273 14.0826 67.7822 16.0831L63.5459 16.0831C63.2517 15.024 62.7516 14.2493 62.0455 13.759C61.3199 13.2687 60.251 13.0235 58.8389 13.0235C57.6621 13.0235 56.7697 13.2295 56.1617 13.6413C55.5341 14.0532 55.2203 14.6318 55.2203 15.3771C55.2203 15.8478 55.3968 16.2204 55.7499 16.495C56.0833 16.7892 56.4951 17.0049 56.9855 17.1422C57.4758 17.2795 58.3485 17.4854 59.6038 17.76C59.7018 17.7796 59.7803 17.7894 59.8391 17.7894C59.8783 17.809 59.947 17.8286 60.045 17.8483C60.1235 17.8679 60.2019 17.8875 60.2804 17.9071C61.3395 18.1228 62.2318 18.3582 62.9575 18.6131C63.6832 18.8681 64.399 19.2211 65.1051 19.6722C65.8112 20.1233 66.3505 20.7019 66.7231 21.408C67.0762 22.114 67.2527 22.9573 67.2527 23.938C67.2527 25.9777 66.4878 27.5663 64.958 28.7039C63.4282 29.8414 61.6042 30.4102 59.4861 30.4102C56.8972 30.4102 54.9359 29.812 53.6023 28.6156C52.249 27.4388 51.4449 25.9091 51.1899 24.0262L55.4557 24.0262C55.9656 25.6737 57.2993 26.4974 59.4567 26.4974C60.653 26.4974 61.5454 26.2719 62.1338 25.8208C62.7222 25.3893 63.0164 24.8206 63.0164 24.1145C63.0164 23.5457 62.7712 23.1339 62.2809 22.8789C61.771 22.6239 60.7707 22.3396 59.2801 22.0257Z" fill="#061224"/>
<path fill-rule="evenodd" clip-rule="evenodd" d="M111.324 15.3313C110.285 14.1938 108.853 13.625 107.029 13.625C104.953 13.625 103.313 14.4291 102.106 16.0372V14.0293H101.998V13.978H97.7913V14.0293H94.6348V17.7648H97.7913V30.1585H101.998V21.6564C101.998 18.9694 103.214 17.626 105.646 17.626C106.725 17.626 107.5 17.9006 107.97 18.4497C108.441 18.9989 108.676 19.8226 108.676 20.9209V30.1585H112.883V20.0089C112.883 18.028 112.363 16.4688 111.324 15.3313Z" fill="#061224"/>
<path fill-rule="evenodd" clip-rule="evenodd" d="M130.216 14.0361H126.009V22.5382C126.009 23.8523 125.696 24.8525 125.068 25.539C124.46 26.2254 123.577 26.5686 122.42 26.5686C121.361 26.5686 120.596 26.294 120.126 25.7449C119.674 25.1957 119.449 24.372 119.449 23.2737V14.0361H115.242V24.1857C115.242 26.1469 115.752 27.7061 116.772 28.8633C117.811 30.0008 119.223 30.5696 121.008 30.5696C123.107 30.5696 124.774 29.7066 126.009 27.9807V30.2166H126.01V30.6243C126.01 31.8426 125.728 32.7254 125.17 33.3042C124.613 33.8819 123.766 34.1851 122.595 34.1851C121.671 34.1851 120.948 34 120.412 33.6455C119.879 33.2932 119.515 32.7632 119.326 32.0406L119.294 31.9164H114.976L115.003 32.1068C115.279 34.0021 116.139 35.4587 117.585 36.46L117.586 36.4605C119.039 37.454 120.747 37.948 122.703 37.948C124.971 37.948 126.799 37.2701 128.168 35.901C129.538 34.5499 130.216 32.7489 130.216 30.5163V30.2166H130.216V14.0361Z" fill="#061224"/>
<rect width="40" height="40" rx="9.92226" fill="#1064E5"/>
<path fill-rule="evenodd" clip-rule="evenodd" d="M31.0667 31.4785C28.2425 34.0674 24.6631 35.3618 20.3288 35.3618C15.7394 35.3618 11.9738 33.9301 9.03187 31.0667C6.10958 28.2228 4.64844 24.5161 4.64844 19.9463C4.64844 15.3962 6.07035 11.709 8.91419 8.88477C11.7776 6.06055 15.4648 4.64844 19.9757 4.64844C22.29 4.64844 24.3788 5.04069 26.242 5.8252L25.5065 9.26722C23.9375 8.54155 22.1331 8.17872 20.0934 8.17872C16.622 8.17872 13.8075 9.22799 11.6502 11.3265C9.51237 13.4251 8.44348 16.3082 8.44349 19.9757C8.44349 23.6237 9.54179 26.5067 11.7384 28.6249C13.9546 30.7627 16.8475 31.8316 20.417 31.8316C21.986 31.8316 23.4177 31.606 24.7122 31.1549C26.0262 30.7235 27.1932 30.0566 28.213 29.1544C29.2525 28.2719 30.0566 27.0853 30.6254 25.5947C30.9247 24.8365 31.1479 24.0174 31.2949 23.1374C31.4737 21.4488 31.5843 19.743 31.2914 18.4194C31.1341 17.7081 30.895 17.2874 30.6454 17.0471C30.433 16.8428 30.0591 16.6174 29.2659 16.6019C27.8583 16.5744 26.2888 17.467 24.6887 19.1417C23.1379 20.7648 21.832 22.8282 21.0312 24.3817C20.7194 24.9865 20.5038 25.4846 20.5038 25.4846L20.4212 25.4011L20.4209 25.4016L14.0415 18.983L16.7417 16.2828L19.7283 19.2042C20.3771 18.2838 21.1144 17.355 21.9278 16.5037C23.7639 14.582 26.3067 12.7249 29.3404 12.784C30.9306 12.8151 32.2777 13.3185 33.293 14.2955C34.271 15.2365 34.7665 16.4495 35.0198 17.5945C35.2195 18.4968 35.2898 19.466 35.2896 20.417H35.303V20.9171C35.303 22.0599 35.21 23.1413 35.0239 24.1613L35.0188 24.2061L35.0157 24.2058C34.4718 27.1396 33.1554 29.5639 31.0667 31.4785Z" fill="white"/>
</svg>
